<?xml version="1.0" standalone="no"?>
<!DOCTYPE svg PUBLIC "-//W3C//DTD SVG 20010904//EN"
 "http://www.w3.org/TR/2001/REC-SVG-20010904/DTD/svg10.dtd">
<svg version="1.0" xmlns="http://www.w3.org/2000/svg"
 width="500.000000pt" height="500.000000pt" viewBox="0 0 500.000000 500.000000"
 preserveAspectRatio="xMidYMid meet">

<g transform="translate(0.000000,500.000000) scale(0.100000,-0.100000)"
fill="#000000" stroke="none">
<path d="M0 2500 l0 -2500 2500 0 2500 0 0 2500 0 2500 -2500 0 -2500 0 0
-2500z m2462 998 c-6 -701 6 -1404 21 -1203 4 66 6 495 3 953 l-6 832 70 0 70
0 0 -959 c0 -528 -3 -962 -7 -964 -5 -2 -61 -2 -125 1 l-118 5 0 727 c0 400 3
835 7 968 l6 242 42 0 42 0 -5 -602z m-154 17 c-51 -158 -78 -286 -94 -450
-14 -136 -15 -180 -4 -295 11 -124 53 -328 81 -390 19 -42 28 -81 18 -75 -5 4
-9 10 -9 15 0 9 -25 67 -85 195 -43 93 -79 193 -112 318 -27 98 -28 111 -27
337 0 207 3 247 22 330 57 242 95 339 181 460 l46 65 6 -210 5 -210 -28 -90z
m-201 194 c-75 -243 -82 -285 -82 -529 0 -192 3 -225 24 -310 48 -194 126
-378 247 -588 36 -61 64 -117 62 -122 -9 -29 -189 231 -254 368 -94 197 -133
354 -141 569 -8 228 24 433 97 605 32 77 79 162 86 155 3 -3 -15 -69 -39 -148z
m-184 -46 c-56 -119 -104 -268 -134 -410 -34 -156 -33 -407 0 -543 56 -228
129 -363 398 -738 195 -272 255 -393 288 -583 9 -52 20 -107 25 -124 7 -28 8
-27 9 15 2 69 36 219 71 308 41 107 104 210 232 379 191 251 289 415 351 583
60 163 72 240 72 460 -1 179 -3 204 -28 304 -32 126 -78 264 -118 355 -33 72
-36 85 -13 56 56 -72 146 -310 185 -486 29 -136 32 -380 5 -507 -52 -246 -153
-439 -396 -757 -175 -230 -236 -331 -293 -492 -23 -64 -60 -244 -69 -343 -6
-50 -13 -24 -37 126 -23 149 -46 223 -92 297 -96 153 -207 254 -337 307 -186
76 -265 133 -362 262 -254 337 -262 813 -20 1214 72 118 290 414 305 414 2 0
-17 -44 -42 -97z m95 -2123 c187 -53 351 -180 427 -329 52 -104 37 -130 -17
-28 -49 93 -173 212 -275 265 -117 61 -213 84 -348 85 -130 0 -186 -9 -366
-64 -134 -41 -360 -92 -368 -83 -12 12 24 26 118 49 56 14 164 44 239 66 75
23 169 47 207 55 98 19 289 11 383 -16z m1338 15 c49 -9 148 -33 219 -55 72
-21 174 -50 229 -64 89 -22 127 -39 115 -50 -8 -7 -184 34 -355 83 -271 79
-417 85 -602 26 -164 -52 -317 -175 -390 -313 -33 -61 -60 -84 -47 -39 43 154
211 311 402 378 140 49 277 60 429 34z m-1298 -126 c106 -26 187 -68 259 -134
60 -54 123 -136 123 -160 0 -7 -19 -15 -42 -19 -38 -6 -44 -4 -66 24 -28 36
-129 89 -227 119 -141 44 -347 45 -495 2 -36 -10 -131 -46 -212 -80 -219 -91
-305 -115 -463 -126 l-90 -6 132 129 c131 128 133 129 195 141 35 7 122 30
193 51 183 54 244 69 327 80 101 12 275 3 366 -21z m1330 5 c40 -8 125 -31
189 -50 65 -20 159 -46 210 -59 89 -22 95 -25 185 -103 51 -44 113 -101 138
-126 52 -54 56 -52 -100 -36 -127 14 -216 40 -392 115 -232 100 -273 110 -468
110 -145 0 -174 -3 -240 -23 -99 -32 -199 -83 -237 -122 -28 -28 -36 -32 -67
-26 -19 4 -38 11 -41 16 -20 32 123 185 220 237 165 86 386 111 603 67z
m-1358 -188 c83 -15 185 -53 242 -91 29 -19 38 -32 38 -53 0 -70 80 -107 215
-100 108 6 146 26 161 88 12 51 38 70 155 115 116 45 200 58 344 52 149 -6
243 -29 390 -97 213 -99 332 -131 508 -138 111 -4 128 -7 125 -21 -3 -14 -19
-16 -109 -15 -170 3 -305 37 -507 128 -151 68 -237 94 -351 107 -158 18 -318
-9 -461 -79 -50 -25 -56 -31 -61 -66 -12 -74 -86 -111 -219 -109 -132 1 -220
42 -220 103 0 40 -26 65 -98 95 -107 44 -186 58 -327 58 -159 1 -234 -17 -432
-102 -238 -102 -360 -133 -523 -135 -89 -1 -105 1 -108 15 -3 14 15 17 130 22
160 6 261 32 448 114 144 63 250 100 324 112 79 13 253 12 336 -3z"/>
<path d="M2391 4054 c0 -11 3 -14 6 -6 3 7 2 16 -1 19 -3 4 -6 -2 -5 -13z"/>
<path d="M2408 3888 c-1 -150 -3 -166 -8 -88 -3 52 -6 -274 -6 -725 -1 -451 2
-804 6 -785 6 29 8 23 9 -32 1 -61 3 -68 21 -68 20 0 20 7 20 940 0 933 0 940
-20 940 -19 0 -20 -7 -22 -182z"/>
<path d="M2546 4005 c3 -20 10 -100 14 -178 l7 -142 1 178 c2 154 0 177 -13
177 -13 0 -15 -7 -9 -35z"/>
<path d="M2556 2393 c-4 -43 -9 -103 -12 -134 -5 -46 -3 -57 10 -62 14 -6 16
10 16 133 0 77 -2 140 -4 140 -2 0 -7 -35 -10 -77z"/>
<path d="M1691 2889 c-1 -118 22 -258 61 -364 57 -156 175 -343 303 -480 l56
-60 -59 80 c-223 302 -315 515 -347 804 l-12 116 -2 -96z"/>
<path d="M2110 1976 c0 -2 8 -10 18 -17 15 -13 16 -12 3 4 -13 16 -21 21 -21
13z"/>
<path d="M1695 1379 c-56 -11 -148 -39 -143 -44 2 -2 37 5 78 17 58 15 105 20
205 20 100 0 147 -5 205 -20 84 -23 107 -22 33 1 -111 36 -265 46 -378 26z"/>
<path d="M3020 1375 c-36 -7 -81 -20 -100 -29 -19 -9 -26 -14 -15 -10 171 49
318 49 525 -1 22 -6 23 -5 7 5 -32 20 -199 50 -277 49 -41 -1 -104 -7 -140
-14z"/>
</g>
</svg>
